<svg width="210" height="72" viewBox="0 0 210 72" fill="none" xmlns="http://www.w3.org/2000/svg">
<g style="mix-blend-mode:luminosity" clip-path="url(#clip0_806_28165)">
<path d="M60.9881 0H11.1175C4.97748 0 0 4.97018 0 11.1012V60.8988C0 67.0298 4.97748 72 11.1175 72H60.9881C67.1282 72 72.1057 67.0298 72.1057 60.8988V11.1012C72.1057 4.97018 67.1282 0 60.9881 0Z" fill="#E8E4DB"/>
<path d="M33.3358 31.9191C38.0147 27.247 40.4555 21.1903 40.6663 15.0689C40.6825 14.5992 40.2933 14.2106 39.823 14.2106H32.4519C31.9978 14.2106 31.6329 14.5749 31.6166 15.0284C31.422 18.8502 29.8651 22.6154 26.9458 25.5304C23.8157 28.6559 19.7126 30.2187 15.6094 30.2187V39.2551C22.0236 39.2551 28.446 36.8098 33.3439 31.9191H33.3358Z" fill="url(#paint0_linear_806_28165)"/>
<path d="M57.031 31.498H56.5039V41.7814H57.031C57.3878 41.7814 57.6797 41.498 57.6797 41.1417V32.1295C57.6797 31.7733 57.3878 31.4899 57.031 31.4899V31.498Z" fill="url(#paint1_linear_806_28165)"/>
<path d="M57.6797 41.1497C57.6797 41.506 57.3878 41.7894 57.031 41.7894H56.5039V40.502H57.031C57.3878 40.502 57.6797 40.7935 57.6797 41.1497Z" fill="#23325E"/>
<path d="M15.0745 40.502H15.6016V30.2186H15.0745C14.7177 30.2186 14.4258 30.502 14.4258 30.8583V39.8704C14.4258 40.2267 14.7177 40.5101 15.0745 40.5101V40.502Z" fill="url(#paint2_linear_806_28165)"/>
<path d="M14.4258 30.8502C14.4258 30.494 14.7177 30.2106 15.0745 30.2106H15.6016V31.498H15.0745C14.7177 31.498 14.4258 31.2065 14.4258 30.8502Z" fill="url(#paint3_linear_806_28165)"/>
<path d="M56.504 41.7814C52.4009 41.7814 48.2977 43.3441 45.1676 46.4696C42.2402 49.3846 40.6833 53.1498 40.4887 56.9717C40.4643 57.4251 40.1075 57.7895 39.6534 57.7895H32.2823C31.812 57.7895 31.4227 57.4008 31.439 56.9312C31.5282 54.413 31.9904 51.9109 32.8337 49.5142C32.8337 49.498 32.8418 49.4818 32.8499 49.4575C32.8905 49.336 32.931 49.2308 32.9878 49.1174C36.0368 42.081 51.8008 41.7976 56.504 41.7976V41.7814Z" fill="#41529A"/>
<path d="M56.5044 32.7531V41.7895C51.7119 41.7895 35.5344 42.081 32.8584 49.4575C34.0585 46.0324 36.0371 42.834 38.7699 40.0972C43.6678 35.2065 50.0901 32.7531 56.5044 32.7531Z" fill="#23325E"/>
<path d="M56.5039 40.5021V31.498L15.61 31.498V40.5021H56.5039Z" fill="url(#paint4_linear_806_28165)"/>
<path d="M52.5949 31.4738C42.2802 31.5305 26.6054 31.8301 16.4691 31.5952C16.088 31.5467 14.9932 31.6681 14.6689 31.4009C14.4905 31.328 14.3202 30.8665 14.4499 30.8584C14.4418 31.2795 14.8878 31.5143 15.2689 31.4495L16.4772 31.409C26.5243 31.1904 42.4748 31.328 52.5949 31.4819V31.4738Z" fill="#EDEEEE"/>
<path d="M103.56 24H106.245V27.8219H103.925C101.379 27.8219 100.333 28.7773 100.333 31.5061V48.0081H96.1406V31.5547C96.1406 26.3725 98.5977 24.0081 103.56 24.0081V24Z" fill="#192343"/>
<path d="M107.664 36.089C107.664 28.9068 112.765 23.5465 119.73 23.5465C125.828 23.5465 131.294 27.6842 131.156 36.5506H111.581C111.808 41.2793 115.084 44.7773 120.047 44.7773C123.55 44.7773 126.42 43.0526 128.196 40.1376L131.107 42.2753C129.015 45.5465 125.374 48.4534 119.998 48.4534C112.627 48.4534 107.664 43.1336 107.664 36.089ZM127.053 33.4089C126.282 29.1336 123.274 27.0931 119.682 27.0931C115.627 27.0931 112.675 29.7732 111.808 33.4089H127.061H127.053Z" fill="#192343"/>
<path d="M135.98 12.9554H140.165V48H135.98V12.9554Z" fill="#192343"/>
<path d="M144.94 36C144.94 28.6801 150.268 23.5465 156.869 23.5465C160.469 23.5465 163.697 25.0931 165.383 27.6356L165.432 23.9999H169.211V48H165.432L165.383 44.3643C163.697 46.9068 160.469 48.4534 156.869 48.4534C150.268 48.4534 144.94 43.3198 144.94 36ZM157.323 44.5425C161.742 44.5425 165.335 41.4979 165.335 36C165.335 30.502 161.742 27.4089 157.323 27.4089C152.636 27.4089 149.133 30.9554 149.133 36C149.133 41.0445 152.636 44.5425 157.323 44.5425Z" fill="#192343"/>
<path d="M176.582 27.8218H173.671V24H176.582V17.3603L180.774 15.8137V23.9919H183.872V27.8137H180.774V47.9919H176.582V27.8137V27.8218Z" fill="#192343"/>
<path d="M186.508 36.089C186.508 28.9068 191.608 23.5465 198.574 23.5465C204.672 23.5465 210.138 27.6842 210 36.5506H190.424C190.652 41.2793 193.928 44.7773 198.89 44.7773C202.393 44.7773 205.264 43.0526 207.04 40.1376L209.951 42.2753C207.859 45.5465 204.218 48.4534 198.842 48.4534C191.471 48.4534 186.508 43.1336 186.508 36.089ZM205.897 33.4089C205.126 29.1336 202.118 27.0931 198.525 27.0931C194.471 27.0931 191.519 29.7732 190.652 33.4089H205.905H205.897Z" fill="#192343"/>
</g>
<defs>
<linearGradient id="paint0_linear_806_28165" x1="15.6013" y1="26.7288" x2="40.6663" y2="26.7288" gradientUnits="userSpaceOnUse">
<stop stop-color="#BB6AA4"/>
<stop offset="1" stop-color="#E07292"/>
</linearGradient>
<linearGradient id="paint1_linear_806_28165" x1="56.5039" y1="36.6397" x2="57.6797" y2="36.6397" gradientUnits="userSpaceOnUse">
<stop offset="0.3" stop-color="#415BA5"/>
<stop offset="1" stop-color="#2D388B"/>
</linearGradient>
<linearGradient id="paint2_linear_806_28165" x1="14.4258" y1="35.3603" x2="15.6016" y2="35.3603" gradientUnits="userSpaceOnUse">
<stop stop-color="#B94290"/>
<stop offset="0.66" stop-color="#DF6898"/>
</linearGradient>
<linearGradient id="paint3_linear_806_28165" x1="14.4258" y1="30.8583" x2="15.6016" y2="30.8583" gradientUnits="userSpaceOnUse">
<stop stop-color="#E07292"/>
<stop offset="0.75" stop-color="#BB6AA4"/>
<stop offset="1" stop-color="#BD6BA2"/>
</linearGradient>
<linearGradient id="paint4_linear_806_28165" x1="15.6019" y1="36.0001" x2="56.5039" y2="36.0001" gradientUnits="userSpaceOnUse">
<stop stop-color="#DF6898"/>
<stop offset="0.55" stop-color="#7C2F88"/>
<stop offset="1" stop-color="#415BA5"/>
</linearGradient>
<clipPath id="clip0_806_28165">
<rect width="210" height="72" fill="white"/>
</clipPath>
</defs>
</svg>
